<svg xmlns="http://www.w3.org/2000/svg" width="220" height="220" viewBox="0 0 220 220" role="img" aria-label="微信二维码占位图 WeChat QR placeholder">
  <rect width="220" height="220" fill="#ffffff"/>
  <g fill="#0b2545">
    <!-- finder patterns -->
    <rect x="16" y="16" width="48" height="48" rx="6"/>
    <rect x="156" y="16" width="48" height="48" rx="6"/>
    <rect x="16" y="156" width="48" height="48" rx="6"/>
  </g>
  <g fill="#ffffff">
    <rect x="26" y="26" width="28" height="28" rx="3"/>
    <rect x="166" y="26" width="28" height="28" rx="3"/>
    <rect x="26" y="166" width="28" height="28" rx="3"/>
  </g>
  <g fill="#2563eb">
    <rect x="34" y="34" width="12" height="12" rx="2"/>
    <rect x="174" y="34" width="12" height="12" rx="2"/>
    <rect x="34" y="174" width="12" height="12" rx="2"/>
  </g>
  <!-- decorative modules -->
  <g fill="#0b2545">
    <rect x="84" y="20" width="10" height="10"/>
    <rect x="104" y="20" width="10" height="10"/>
    <rect x="124" y="32" width="10" height="10"/>
    <rect x="84" y="44" width="10" height="10"/>
    <rect x="112" y="56" width="10" height="10"/>
    <rect x="20" y="84" width="10" height="10"/>
    <rect x="44" y="96" width="10" height="10"/>
    <rect x="32" y="120" width="10" height="10"/>
    <rect x="20" y="132" width="10" height="10"/>
    <rect x="84" y="84" width="14" height="14"/>
    <rect x="110" y="84" width="10" height="10"/>
    <rect x="130" y="96" width="10" height="10"/>
    <rect x="96" y="108" width="10" height="10"/>
    <rect x="120" y="120" width="14" height="14"/>
    <rect x="84" y="132" width="10" height="10"/>
    <rect x="150" y="84" width="10" height="10"/>
    <rect x="172" y="96" width="10" height="10"/>
    <rect x="188" y="120" width="10" height="10"/>
    <rect x="160" y="132" width="10" height="10"/>
    <rect x="84" y="160" width="10" height="10"/>
    <rect x="104" y="172" width="10" height="10"/>
    <rect x="124" y="160" width="10" height="10"/>
    <rect x="144" y="172" width="10" height="10"/>
    <rect x="164" y="160" width="10" height="10"/>
    <rect x="184" y="172" width="10" height="10"/>
    <rect x="108" y="144" width="10" height="10"/>
    <rect x="140" y="144" width="10" height="10"/>
  </g>
  <rect x="78" y="92" width="64" height="36" rx="6" fill="#ffffff" stroke="#2563eb" stroke-width="2"/>
  <text x="110" y="115" text-anchor="middle" font-family="system-ui, sans-serif" font-size="13" font-weight="700" fill="#2563eb">WeChat</text>
</svg>
